<svg height="512pt" viewBox="-47 0 512 512" width="512pt" xmlns="http://www.w3.org/2000/svg"><path d="m418.976562 10.300781v491.398438c0 5.6875-4.617187 10.300781-10.304687 10.300781h-398.367187c-3 0-5.699219-1.277344-7.582032-3.328125-1.691406-1.832031-2.722656-4.285156-2.722656-6.972656v-491.398438c0-2.6875 1.03125-5.140625 2.722656-6.972656h.007813c1.875-2.050781 4.574219-3.328125 7.574219-3.328125h398.371093c5.683594 0 10.300781 4.613281 10.300781 10.300781zm0 0" fill="#b07d55"/><path d="m378.613281 443.796875-338.25 8.386719v-402.863282h338.25zm0 0" fill="#f5dcb4"/><path d="m383.308594 205.113281-3.660156 190.867188c-12.402344-9.035157-33.742188-15.535157-49.074219-16.339844-18.335938-18.890625-18.304688-24.367187-23.085938-40.140625-4.070312-13.414062-6.382812-24.929688-10.75-38.25-3.832031-11.703125 7.710938-33.648438 6.023438-45.847656l.113281-.019532c10.867188-7.511718 27.84375-5.554687 36.632812 4.292969-5.667968-19.796875 3.644532-53 39.042969-54.464843zm0 0" fill="#b1f192"/><path d="m391.292969 407.140625-12.679688 55.535156h-161.511719v-2c2.585938 0 5.171876-.101562 7.757813-.308593 11-.894532 21.695313-3.84375 31.851563-8.191407 8.59375-3.664062 16.8125-8.34375 24.519531-13.597656 16.832031-11.496094 37.820312-33.652344 52.429687-47.859375 19.554688 9.382812 45.457032 7.6875 57.632813 16.421875zm0 0" fill="#ff636f"/><path d="m378.613281 395.382812v32.902344c-12.175781-8.734375-31.265625-20.621094-50.820312-30.007812 1.371093-6.128906 2.296875-12.371094 2.78125-18.636719 15.332031.804687 35.636719 6.707031 48.039062 15.742187zm0 0" fill="#fe4455"/><path d="m256.710938 452.175781c-10.15625 4.347657-20.851563 7.296875-31.851563 8.191407-2.585937.207031-5.171875.308593-7.757813.308593-10.167968 0-20.34375-1.472656-30.378906-3.246093-9.078125-1.605469-18.203125-3.5-27.125-6.066407-9.746094-2.769531-19.246094-6.347656-28.164062-11.1875-11.332032-6.152343-27.628906-16.328125-26.878906-31.113281.585937-11.558594 9.066406-21.046875 16.410156-29.222656 1.25-1.394532 2.523437-2.761719 3.824218-4.101563.007813 0 .007813-.011719.019532-.011719 6.625-6.839843 13.90625-13.039062 21.707031-18.492187 10.25-7.167969 23.507813-10.628906 28.050781-23.414063 3.742188-10.550781-1.257812-24.808593-1.84375-35.738281 3.84375.761719 7.746094 1.164063 11.664063 1.164063 21.457031.011718 47.117187-16.902344 60.039062-34.046875.554688 3.667969 12.984375-1.1875 14.066407 2.417969 2.625 8.777343 2.449218 8.1875 11.046874 11.382812 79.828126 29.667969-7.542968 133.433594-12.828124 173.175781zm0 0" fill="#f4c79c"/><path d="m217.628906 457.429688c-9.078125-1.605469-18.203125-3.5-27.125-6.066407-9.746094-2.769531-19.246094-6.347656-28.164062-11.1875-11.332032-6.152343-27.628906-16.328125-26.878906-31.113281.585937-11.558594 9.066406-21.046875 16.410156-29.222656 1.246094-1.394532 2.523437-2.761719 3.824218-4.101563.007813 0 .007813-.011719.019532-.011719 6.625-6.839843 13.90625-13.039062 21.707031-18.492187 8.804687-6.15625 21.460937-8.71875 25.625-18.539063 1.089844-2.566406.941406-5.5.824219-8.320312-.210938-5.058594-1.574219-10.046875-2.613282-14.984375-1.039062-4.921875-1.726562-9.863281-2.3125-14.851563-.132812-1.132812-.234374-2.296874-.339843-3.476562-4.824219 1.394531-9.621094 2.1875-14.222657 2.183594-3.914062 0-7.820312-.402344-11.660156-1.164063.585938 10.929688 5.582032 25.1875 1.84375 35.738281-4.542968 12.785157-17.804687 16.246094-28.054687 23.414063-7.796875 5.449219-15.082031 11.652344-21.703125 18.492187-.011719 0-.011719.011719-.023438.011719-1.296875 1.335938-2.574218 2.707031-3.820312 4.097657-7.347656 8.179687-15.824219 17.667968-16.410156 29.226562-.753907 14.785156 15.542968 24.960938 26.875 31.113281 8.921874 4.839844 18.421874 8.414063 28.164062 11.1875 8.921875 2.5625 18.050781 4.460938 27.125 6.066407 10.035156 1.773437 20.214844 3.246093 30.382812 3.246093 2.585938 0 5.171876-.105469 7.753907-.308593 2.226562-.183594 4.433593-.46875 6.632812-.8125-4.640625-.570313-9.265625-1.3125-13.859375-2.125zm0 0" fill="#e5ac78"/><path d="m245.863281 166.621094c-2.554687-12.628906-8.550781-25.1875-19.210937-32.410156-13.835938-9.375-34.636719-9.582032-42.9375-24.085938-3.722656-6.5-4.339844-14.957031-3.84375-22.746094h-.011719c-.453125 7.222656-3.121094 14.699219-7.160156 20.46875-4.851563 6.945313-11.425781 12.527344-18.386719 17.359375-8.316406 5.769531-17.472656 10.644531-27.445312 12.371094l-.671876-.050781c-.039062.46875-.074218.953125-.109374 1.457031l.285156.019531c-1.78125 16.542969-3.5625 33.140625-4.480469 49.746094-.742187 13.382812-.925781 26.773438-.113281 40.15625.835937 13.691406 2.832031 27.679688 9.4375 39.703125 8.4375 15.378906 24.28125 26.082031 41.503906 29.472656 3.84375.761719 7.75 1.164063 11.664062 1.164063 21.457032.007812 47.121094-16.90625 60.039063-34.046875-3.730469-24.34375 2.792969-49.902344 3.304687-74.917969v-.359375c.144532-7.847656-.308593-15.613281-1.863281-23.300781zm0 0" fill="#f2bb88"/><path d="m162.121094 268.609375c-6.601563-12.023437-8.601563-26.011719-9.433594-39.703125-.816406-13.382812-.628906-26.773438.113281-40.15625.863281-15.683594 2.503907-31.363281 4.183594-46.992188.179687-1.691406 1.261719-3.152343 2.828125-3.816406 5.574219-2.367187 18.925781-8.238281 25.40625-12.730468 2.660156-1.847657 5.261719-3.804688 7.734375-5.90625-3.75-2.308594-6.964844-5.203126-9.238281-9.175782-3.722656-6.5-4.339844-14.960937-3.84375-22.746094h-.011719c-.453125 7.21875-3.121094 14.699219-7.160156 20.46875-4.851563 6.941407-11.425781 12.527344-18.386719 17.359376-8.316406 5.769531-17.472656 10.640624-27.445312 12.371093l-.671876-.050781c-.039062.464844-.074218.953125-.109374 1.457031l.285156.015625c-1.78125 16.546875-3.5625 33.140625-4.480469 49.746094-.742187 13.382812-.925781 26.773438-.113281 40.15625.835937 13.691406 2.832031 27.683594 9.4375 39.703125 8.4375 15.382813 24.28125 26.085937 41.503906 29.472656 3.84375.761719 7.75 1.164063 11.664062 1.164063 4.726563.003906 9.660157-.816406 14.613282-2.28125-15.390625-4.265625-29.199219-14.367188-36.875-28.355469zm0 0" fill="#e3a76f"/><path d="m117.769531 374.503906c-28.257812 5.199219-60.296875 27.859375-80.28125 48.496094v-82.5c13-13.019531 32.75-6.207031 35.480469 5.074219 0-30.433594 24.105469-35.808594 32.027344-37.417969 8.332031 21.902344 17.664062 43.609375 12.773437 66.347656zm0 0" fill="#b1f192"/><g fill="#b07d55"><path d="m165.800781 251.761719c-2.792969 0-5.457031-1.09375-7.457031-3.097657-2.28125-2.277343-3.378906-5.421874-3.015625-8.628906.269531-2.378906.660156-5.152344 1.109375-8.363281.992188-7.09375 2.230469-15.914063 2.542969-23.597656.371093-9.011719-.714844-12.347657-1.1875-13.351563-2.070313-.28125-7.027344.871094-9.507813 1.445313-2.296875.53125-4.464844 1.03125-6.40625 1.234375-4.238281.441406-8.042968-2.644532-8.484375-6.890625-.4375-4.242188 2.644531-8.039063 6.890625-8.480469.984375-.101562 2.777344-.519531 4.515625-.921875 7.246094-1.675781 16.261719-3.761719 22.667969 1.394531 9.542969 7.679688 7.6875 26.933594 4.273438 51.308594-.101563.71875-.199219 1.417969-.292969 2.09375 2.253906-.0625 4.507812-.023438 6.746093.117188 4.261719.273437 7.492188 3.949218 7.21875 8.207031-.273437 4.257812-3.929687 7.488281-8.203124 7.214843-3.390626-.214843-6.824219-.132812-10.203126.246094-.402343.046875-.808593.070313-1.207031.070313zm0 0"/><path d="m207.65625 203.960938c-6.265625 0-12.246094-2.148438-16.714844-6.066407-3.207031-2.8125-3.527344-7.695312-.714844-10.902343 2.816407-3.207032 7.699219-3.527344 10.90625-.714844 1.886719 1.65625 4.664063 2.453125 7.617188 2.183594 2.957031-.269532 5.542969-1.554688 7.101562-3.523438 2.644532-3.347656 7.503907-3.914062 10.851563-1.265625s3.914063 7.507813 1.265625 10.851563c-4.171875 5.273437-10.664062 8.671874-17.816406 9.324218-.835938.078125-1.667969.113282-2.496094.113282zm0 0"/><path d="m170.847656 279.667969c-6.175781 0-12.003906-2.355469-16.070312-6.515625-2.984375-3.050782-2.929688-7.945313.125-10.925782 3.046875-2.984374 7.941406-2.929687 10.925781.121094 1.195313 1.226563 3.160156 1.925782 5.265625 1.863282 2.101562-.058594 4.027344-.859376 5.15625-2.148438 2.808594-3.210938 7.691406-3.535156 10.902344-.726562 3.210937 2.808593 3.535156 7.691406.726562 10.902343-3.972656 4.539063-9.9375 7.242188-16.359375 7.417969-.226562.007812-.449219.011719-.671875.011719zm0 0"/><path d="m173.972656 440.929688c-1.800781 4.316406-7.167968 12.992187-9.378906 17.078124-2.710938-.652343-4.828125-1.625-7.519531-2.347656-2.335938-.628906-4.875-1.914062-7.046875-3.007812-.269532-.136719 7.632812-13.960938 8.132812-14.863282 1.277344-2.300781 2.28125-4.976562 4.417969-6.648437 2.324219-1.816406 5.726563-2.0625 8.308594-.648437 3.617187 1.980468 4.816406 6.023437 3.375 9.714843-.09375.242188-.191407.484375-.289063.722657zm0 0"/></g><path d="m217.101562 460.675781v2h-155.691406c6.941406-45.988281 28.597656-65.34375 55.792969-82.324219 2.484375-1.554687 5.019531-3.078124 7.582031-4.613281-1.296875 1.339844-2.574218 2.707031-3.820312 4.101563-7.34375 8.179687-15.824219 17.667968-16.410156 29.222656-.753907 14.785156 15.542968 24.960938 26.875 31.113281 6.644531 3.605469 13.621093 6.511719 20.769531 8.910157 8.4375 2.570312 8.578125 2.535156 15.070312 4.304687 6.449219 1.597656 12.960938 2.886719 19.453125 4.039063 10.03125 1.773437 20.210938 3.246093 30.378906 3.246093zm0 0" fill="#ff636f"/><path d="m378.613281 462.675781 37.640625 45.996094c1.691406-1.832031 2.722656-4.285156 2.722656-6.972656v-491.398438c0-2.6875-1.03125-5.140625-2.722656-6.972656h-.007812l-37.632813 45.992187zm0 0" fill="#a26349"/><path d="m330.574219 379.640625c-.484375 6.265625-1.410157 12.507813-2.78125 18.636719-14.605469 14.207031-29.730469 28.804687-46.5625 40.300781-7.707031 5.253906-15.925781 9.933594-24.519531 13.597656 5.285156-39.742187 29.949218-111.1875.300781-150.539062-5.523438-7.324219-7.53125-16.75-10.160157-25.527344-1.082031-3.605469-1.875-7.242187-2.429687-10.910156-3.730469-24.34375 2.792969-49.902344 3.308594-74.914063v-.363281c.140625-7.847656-.308594-15.617187-1.867188-23.300781-2.554687-12.632813-8.550781-25.1875-19.210937-32.410156-13.835938-9.375-34.636719-9.582032-42.9375-24.085938-3.722656-6.5-4.339844-14.960938-3.84375-22.746094.09375-1.472656.226562-2.914062.378906-4.328125 7.820312-3.492187 17.121094-5.039062 26.28125-5.039062 5.4375 0 10.828125.546875 15.8125 1.546875 26.703125 5.347656 47.875 27.011718 59.316406 51.722656 11.445313 24.714844 14.621094 52.355469 16.835938 79.492188 1.214844 14.863281 2.214844 29.855468 4.265625 44.625 1.6875 12.199218 4.097656 24.242187 7.929687 35.945312 4.367188 13.316406 10.527344 26.011719 14.597656 39.421875 4.78125 15.777344 6.5625 32.445313 5.285157 48.875zm0 0" fill="#88544f"/><path d="m117.769531 374.503906c-.113281 1.945313-.296875 3.890625-.566406 5.847656-27.195313 16.976563-48.851563 36.335938-55.792969 82.324219l-23.449218.273438-23.734376 28.179687 26.136719-75.140625c19.984375-20.636719 49.148438-36.285156 77.40625-41.484375zm0 0" fill="#fe4455"/><path d="m40.363281 462.675781-37.644531 45.996094c-1.6875-1.832031-2.71875-4.285156-2.71875-6.972656v-491.398438c0-2.6875 1.03125-5.140625 2.71875-6.972656h.011719l37.632812 45.992187zm0 0" fill="#a26349"/><path d="m127.140625 137.527344c9.867187-1.769532 18.933594-6.601563 27.171875-12.316406 6.960938-4.832032 13.535156-10.417969 18.386719-17.359376 4.039062-5.769531 6.964843-13.195312 7.417969-20.417968.09375-1.464844.222656-2.960938.128906-4.382813-19.449219-3.855469-38.605469 9.171875-52 23.800781-8.0625 8.820313-15.097656 18.507813-21.070313 28.820313l-.210937-.011719c-22.058594 39.363282-29.679688 89.621094-17.648438 133.21875 3.617188 13.113282 8.828125 26.175782 13.804688 39.28125 8.335937 21.898438 11.277344 33.015625 13.367187 58.839844.15625 1.945312-.652343 17.050781-.921875 19.007812 2.484375-1.554687 5.398438-6.167968 9.21875-10.269531.011719 0 .011719-.011719.023438-.011719 6.621094-6.839843 13.90625-13.039062 21.703125-18.492187 10.25-7.167969 23.511719-10.628906 28.054687-23.414063 3.738282-10.550781-1.257812-24.808593-1.84375-35.738281-17.226562-3.386719-33.070312-14.09375-41.507812-29.472656-6.605469-12.019531-8.601563-26.011719-9.4375-39.703125-.8125-13.382812-.625-26.773438.113281-40.15625.90625-16.367188 3.46875-34.855469 5.25-51.222656zm0 0" fill="#88544f"/></svg>